<?xml version="1.0" standalone="no"?><!DOCTYPE svg PUBLIC "-//W3C//DTD SVG 1.1//EN" "http://www.w3.org/Graphics/SVG/1.1/DTD/svg11.dtd"><svg t="1700141837851" class="icon" viewBox="0 0 1088 1024" version="1.1" xmlns="http://www.w3.org/2000/svg" p-id="2711" xmlns:xlink="http://www.w3.org/1999/xlink" width="212.5" height="200"><path d="M255.296 1019.456H109.696a105.152 105.152 0 0 1-105.152-105.152v-512c0-58.112 47.104-105.152 105.152-105.152h133.312L502.208 45.056a100.992 100.992 0 0 1 171.264 105.728L600.32 297.152h249.152a178.304 178.304 0 0 1 167.36 239.808l-110.08 366.784a178.368 178.368 0 0 1-167.04 115.712H256a32.64 32.64 0 0 1-0.704 0zM288 342.656v612.8h451.776a113.92 113.92 0 0 0 106.304-72.128l109.76-365.76 0.64-1.984a114.304 114.304 0 0 0-107.008-154.432H548.48a32 32 0 0 1-28.608-46.336l96.32-192.64a36.992 36.992 0 0 0-33.152-53.568c-11.648 0-22.656 5.44-32.896 18.56L288 342.656z m-64 612.8V361.152H109.696a41.152 41.152 0 0 0-41.152 41.152v512c0 22.72 18.432 41.152 41.152 41.152H224z" fill="#666666" p-id="2712"></path></svg>