<?xml version="1.0" standalone="no"?><!DOCTYPE svg PUBLIC "-//W3C//DTD SVG 1.1//EN" "http://www.w3.org/Graphics/SVG/1.1/DTD/svg11.dtd"><svg t="1700141853159" class="icon" viewBox="0 0 1088 1024" version="1.1" xmlns="http://www.w3.org/2000/svg" p-id="2869" xmlns:xlink="http://www.w3.org/1999/xlink" width="212.5" height="200"><path d="M832.704 4.544h145.6c58.048 0 105.152 47.04 105.152 105.152v512c0 58.112-47.104 105.152-105.152 105.152h-133.312l-259.2 252.096a100.992 100.992 0 0 1-171.264-105.728l73.152-146.368H238.528A178.304 178.304 0 0 1 71.168 487.04l110.08-366.784A178.368 178.368 0 0 1 348.352 4.48H832a32.64 32.64 0 0 1 0.704 0z m31.36 64v594.304h114.24a41.152 41.152 0 0 0 41.152-41.152v-512a41.152 41.152 0 0 0-41.152-41.152H864z" fill="#45BEB4" p-id="2870"></path></svg>